<?xml version="1.0" standalone="no"?>
<!DOCTYPE svg PUBLIC "-//W3C//DTD SVG 20010904//EN"
 "http://www.w3.org/TR/2001/REC-SVG-20010904/DTD/svg10.dtd">
<svg version="1.0" xmlns="http://www.w3.org/2000/svg"
 width="720.000000pt" height="1280.000000pt" viewBox="0 0 720.000000 1280.000000"
 preserveAspectRatio="xMidYMid meet">

<g transform="translate(0.000000,1280.000000) scale(0.100000,-0.100000)"
fill="#000000" stroke="none">
<path d="M4640 7794 c-19 -9 -56 -27 -82 -40 -34 -18 -48 -21 -51 -12 -4 9
-13 5 -29 -13 -13 -14 -33 -28 -44 -31 -10 -3 -27 -9 -36 -13 -13 -5 -18 -2
-18 9 0 17 -29 11 -42 -8 -5 -7 -8 -6 -8 3 0 8 7 22 16 32 9 10 14 23 12 30
-4 13 -58 -38 -58 -56 0 -5 -4 -16 -9 -24 -8 -12 -12 -12 -25 -2 -18 15 -37 6
-30 -13 3 -7 -2 -19 -11 -26 -8 -7 -15 -17 -15 -22 0 -5 -7 -17 -16 -26 -15
-15 -16 -15 -10 4 3 11 -2 36 -14 59 -18 35 -20 37 -21 15 -1 -23 -2 -22 -9 5
l-8 30 -1 -33 c-1 -40 16 -75 31 -66 7 4 8 2 4 -5 -4 -6 -3 -17 2 -24 14 -16
-6 -41 -36 -45 -13 -2 -34 4 -47 12 -13 9 -32 16 -41 16 -9 0 -28 13 -42 28
-31 32 -92 51 -92 27 0 -7 14 -23 30 -35 36 -25 40 -45 8 -36 -13 4 -36 9 -53
13 -27 6 -29 5 -16 -10 7 -9 19 -17 26 -17 7 0 18 -7 25 -15 10 -13 9 -15 -8
-15 -11 0 -27 -6 -34 -13 -18 -18 -138 -57 -175 -57 -25 0 -32 5 -36 28 -4 18
1 33 14 48 11 11 16 24 12 27 -3 4 0 7 7 7 7 0 10 3 7 7 -4 3 -2 12 5 20 15
19 2 29 -17 13 -28 -23 -38 -52 -45 -128 -6 -61 -12 -78 -36 -103 -15 -16 -22
-29 -16 -29 18 0 15 -17 -6 -37 -11 -10 -25 -47 -32 -83 -7 -36 -23 -79 -36
-97 -16 -21 -24 -45 -24 -72 0 -23 -4 -49 -9 -59 -36 -66 -61 -135 -66 -182
-4 -30 -11 -67 -16 -81 -6 -15 -14 -69 -19 -120 -5 -52 -16 -130 -25 -174 -20
-106 -24 -187 -7 -193 6 -2 10 -8 6 -13 -3 -5 2 -9 11 -9 10 0 26 -21 40 -52
20 -45 24 -49 24 -25 1 37 17 34 25 -5 7 -38 23 -58 45 -58 9 0 29 -11 44 -25
23 -22 27 -33 27 -83 0 -52 -3 -58 -26 -69 -15 -7 -31 -10 -35 -7 -17 10 -9
-5 17 -33 14 -15 33 -28 42 -28 21 0 66 -158 70 -247 3 -62 1 -68 -16 -68 -11
0 -27 10 -35 23 -15 21 -15 21 -4 -10 6 -18 15 -33 19 -33 18 0 5 -21 -38 -62
-25 -23 -59 -55 -75 -70 -25 -24 -52 -32 -99 -30 -3 0 -61 -4 -130 -9 -154
-11 -174 -7 -205 39 l-25 37 0 -30 c0 -17 11 -50 25 -74 14 -23 25 -45 25 -47
0 -2 -15 -4 -33 -4 -19 0 -37 -3 -41 -7 -3 -4 -16 -8 -28 -10 -12 -2 -26 -7
-32 -11 -29 -22 -110 -42 -196 -48 -52 -3 -111 -13 -130 -22 -51 -23 -90 -54
-83 -65 3 -6 1 -7 -5 -3 -18 11 -118 -52 -106 -68 2 -3 1 -4 -2 -2 -3 2 -31
-8 -62 -24 -62 -31 -201 -166 -242 -235 -13 -22 -49 -67 -79 -100 -31 -33 -72
-80 -91 -105 -19 -25 -60 -69 -90 -100 -30 -30 -67 -79 -81 -108 -16 -31 -30
-49 -34 -42 -5 8 -11 8 -21 -1 -31 -25 -12 87 31 186 58 131 93 358 99 635 3
113 8 167 21 200 9 25 25 77 36 115 11 39 26 84 34 100 7 17 16 48 20 70 10
58 46 188 55 200 12 15 39 163 33 185 -3 10 -11 21 -18 24 -16 6 -70 -45 -56
-53 13 -8 1 -26 -22 -34 -10 -4 -16 -11 -13 -16 3 -5 -1 -14 -9 -21 -15 -12
-12 -30 5 -30 5 0 7 6 4 14 -7 18 15 31 29 17 8 -8 8 -11 -2 -11 -7 0 -9 -5
-6 -11 4 -5 -3 -18 -14 -28 -21 -18 -29 -51 -12 -51 5 0 12 -11 15 -25 4 -17
0 -31 -14 -45 -11 -11 -18 -25 -15 -30 3 -5 -1 -20 -10 -33 -8 -13 -12 -27 -9
-30 4 -4 0 -9 -9 -13 -12 -4 -15 -16 -12 -45 2 -21 -1 -41 -6 -45 -5 -3 -7 -9
-4 -14 5 -8 -14 -71 -24 -80 -11 -9 -41 -68 -41 -80 0 -16 -53 -59 -65 -52
-12 7 -25 10 -88 16 -61 7 -62 8 -62 48 0 29 4 33 27 36 33 4 35 11 43 147 7
126 8 135 16 135 4 0 10 21 13 48 4 26 12 60 18 75 8 22 8 31 -1 36 -6 4 -9
15 -6 24 17 54 16 52 25 37 7 -10 10 9 11 60 1 41 0 80 -1 85 -1 6 -3 17 -4
24 -3 17 -26 28 -26 12 0 -6 -7 -11 -15 -11 -8 0 -15 -6 -15 -14 0 -8 -5 -16
-10 -18 -6 -2 -12 -16 -14 -32 -2 -15 -7 -31 -13 -34 -5 -4 -13 -20 -17 -35
-4 -15 -11 -25 -16 -22 -6 3 -10 -1 -10 -10 0 -9 5 -13 10 -10 6 3 10 -1 10
-10 0 -9 9 -19 20 -22 18 -5 20 -12 16 -52 -3 -25 -5 -56 -5 -69 -1 -13 -5
-20 -11 -17 -5 3 -10 0 -10 -9 0 -8 -5 -16 -12 -18 -9 -3 -9 -11 0 -34 14 -33
14 -144 0 -144 -4 0 -8 -9 -8 -19 0 -10 -7 -22 -16 -25 -11 -4 -13 -13 -9 -27
6 -18 4 -21 -10 -16 -9 4 -26 7 -37 7 -11 0 -18 5 -15 13 2 6 10 11 16 10 6
-2 11 2 11 7 0 6 -11 8 -27 4 -41 -10 -43 -12 -43 -50 0 -22 -6 -37 -15 -40
-30 -12 -14 -24 30 -24 51 0 102 -33 77 -49 -7 -4 -19 -20 -27 -34 -12 -24
-11 -27 6 -32 10 -4 19 -12 19 -20 0 -7 9 -15 20 -18 11 -3 19 -9 18 -15 -2
-5 12 -32 30 -60 23 -36 40 -52 55 -52 16 0 18 -3 8 -9 -11 -7 -10 -13 4 -34
9 -15 14 -31 10 -37 -3 -5 -2 -10 3 -10 5 0 7 -11 4 -25 -2 -14 -10 -25 -16
-25 -7 0 -11 -19 -10 -55 1 -30 -3 -55 -7 -55 -5 0 -9 -6 -9 -14 0 -8 -7 -16
-15 -20 -8 -3 -15 -12 -15 -21 0 -8 -5 -15 -12 -15 -6 0 -4 -7 5 -18 21 -23
22 -36 3 -29 -8 3 -19 -5 -27 -20 -11 -21 -11 -27 -1 -30 19 -7 14 -20 -9 -26
-12 -3 -18 -10 -15 -16 3 -5 -1 -16 -9 -25 -8 -8 -11 -17 -6 -20 5 -4 8 -38 7
-77 -3 -55 0 -69 10 -65 8 3 14 -1 14 -8 0 -8 -4 -16 -9 -18 -5 -1 -12 -16
-15 -33 -3 -16 -11 -56 -17 -87 -6 -32 -15 -55 -20 -52 -5 3 -9 -8 -9 -25 0
-16 -6 -36 -13 -43 -19 -19 -27 -56 -13 -61 6 -2 0 -2 -14 0 -14 3 -28 10 -32
16 -6 9 -10 9 -16 1 -26 -40 -91 -43 -156 -9 -26 14 -58 25 -72 25 -17 0 -23
4 -18 12 5 8 2 9 -9 5 -22 -8 -67 50 -67 86 0 14 -5 29 -10 32 -16 10 -27 -33
-35 -128 -7 -87 4 -164 29 -196 5 -7 15 -23 21 -35 6 -11 26 -29 45 -38 30
-14 136 -37 193 -41 10 -1 17 -10 18 -22 0 -11 1 -37 3 -58 2 -21 0 -33 -4
-27 -14 22 -16 -9 -6 -74 6 -33 15 -64 21 -68 7 -6 7 -10 -1 -15 -6 -5 -14
-29 -18 -55 -5 -32 -12 -48 -22 -48 -8 0 -14 5 -14 10 0 6 -4 10 -9 10 -6 0
-9 -9 -8 -21 1 -16 6 -19 27 -14 14 4 26 11 28 16 6 15 19 10 19 -7 0 -9 -9
-19 -19 -22 -27 -7 -22 -19 7 -19 14 0 28 -3 31 -5 9 -9 -8 -38 -22 -38 -8 0
-14 -4 -14 -10 0 -19 -21 -10 -32 15 -7 16 -14 21 -18 14 -4 -6 3 -30 17 -54
16 -30 20 -45 13 -50 -7 -4 -17 -2 -23 4 -6 6 -18 11 -27 10 -10 0 -11 -2 -2
-6 6 -2 12 -15 12 -28 0 -13 6 -28 13 -32 39 -23 22 -70 -28 -75 -26 -3 -31
-8 -41 -47 -6 -25 -16 -47 -24 -49 -8 -3 -11 1 -8 9 4 8 9 21 12 29 4 9 0 24
-8 35 -14 19 -15 17 -16 -25 0 -26 -5 -51 -11 -57 -15 -15 15 -48 32 -37 9 5
6 11 -6 21 -18 12 -18 13 -1 13 9 0 27 -5 38 -11 12 -6 23 -7 27 -2 7 10 26
11 37 1 4 -4 -5 -12 -18 -17 -20 -8 -25 -15 -21 -35 4 -21 1 -26 -15 -26 -12
0 -25 7 -30 17 -6 9 -16 14 -25 10 -11 -4 -14 -2 -11 7 3 8 -4 16 -15 19 -13
3 -21 13 -21 26 0 17 -6 21 -29 21 -17 0 -33 -5 -36 -11 -9 -13 -55 40 -55 64
0 21 16 23 24 2 3 -8 11 -15 18 -15 9 0 9 3 0 12 -7 7 -12 19 -12 28 0 9 -12
22 -26 29 l-26 11 3 178 c2 104 8 191 15 212 16 45 8 57 -17 26 -32 -41 -69
-155 -79 -251 -10 -83 -47 -187 -74 -206 -5 -4 -6 -37 -1 -75 4 -38 10 -106
13 -151 8 -92 14 -101 128 -194 58 -47 62 -54 84 -130 13 -44 27 -82 32 -85 4
-3 8 -12 8 -21 0 -8 14 -32 30 -53 17 -21 30 -42 30 -48 0 -5 20 -28 44 -50
33 -31 57 -43 102 -52 69 -14 199 -7 241 14 15 8 66 21 112 30 52 9 117 31
173 57 81 39 91 47 119 96 34 59 55 80 44 42 -4 -13 -11 -28 -15 -34 -13 -17
-98 -295 -115 -375 -9 -41 -25 -154 -35 -250 -22 -202 -33 -264 -55 -317 -19
-44 -58 -160 -110 -328 -21 -66 -56 -172 -77 -235 -22 -63 -50 -149 -63 -190
-13 -41 -33 -101 -44 -132 -26 -71 -51 -213 -51 -288 0 -38 -5 -62 -14 -70
-30 -24 -96 -198 -96 -252 0 -23 4 -28 25 -28 19 0 26 7 31 28 10 45 14 50 10
9 l-5 -37 2020 0 c1275 0 2019 4 2019 10 0 5 -7 7 -16 3 -14 -5 -16 -2 -10 21
4 17 2 34 -5 42 -8 10 -8 14 0 14 6 0 17 -11 23 -25 l11 -25 34 20 c32 19 38
16 34 -17 -3 -23 29 -14 38 10 18 47 38 57 109 56 76 -2 130 14 239 69 51 25
73 42 73 55 0 10 8 34 18 55 10 20 36 90 57 155 34 105 37 123 27 150 -7 17
-17 70 -23 117 -6 47 -15 93 -20 102 -5 10 -9 25 -9 33 0 8 -5 24 -12 35 -10
16 -8 33 15 98 34 98 83 286 108 417 11 55 28 132 39 170 36 126 40 185 46
603 7 471 3 566 -29 614 -25 36 -47 47 -47 23 0 -11 5 -15 15 -11 15 5 22 -19
8 -26 -5 -1 -19 -27 -32 -56 -14 -29 -29 -51 -35 -49 -5 2 -26 36 -46 75 -20
40 -43 80 -52 89 -8 10 -25 40 -37 67 l-23 50 21 39 c12 21 21 45 21 52 0 7
12 22 27 33 25 18 27 25 26 82 -3 95 47 154 62 74 8 -44 25 -84 37 -84 20 0 3
129 -47 370 -15 68 -29 129 -33 134 -3 6 -9 69 -12 141 -6 110 -11 141 -35
198 -15 37 -36 73 -46 80 -19 14 -69 112 -69 137 0 27 -35 68 -101 121 -35 28
-89 73 -119 99 -54 46 -236 180 -244 180 -3 0 -74 45 -158 101 -145 95 -157
105 -228 197 -41 54 -95 119 -120 146 -24 26 -52 59 -62 74 -9 15 -45 52 -80
83 l-62 56 33 49 c30 46 143 269 155 307 3 9 14 17 25 17 11 0 23 5 26 10 3 6
1 10 -4 10 -15 0 -14 22 2 53 9 17 17 23 24 16 6 -6 13 12 21 53 8 47 18 68
37 83 14 12 25 26 25 33 0 7 5 12 10 12 6 0 10 11 10 25 0 24 18 32 54 26 5
-1 6 10 4 24 -4 20 -2 25 10 20 11 -4 13 1 9 24 -3 16 -3 32 1 36 4 4 7 10 8
13 0 4 3 14 7 22 3 8 11 40 18 70 6 30 15 60 20 66 5 5 9 50 10 100 1 73 7
103 31 166 17 43 37 83 44 89 8 6 14 22 14 34 0 12 7 28 15 35 17 14 20 51 4
67 -7 7 -6 15 5 26 9 9 16 23 16 31 0 9 6 16 14 16 10 0 12 7 8 22 -3 14 -2
19 6 14 22 -14 12 33 -10 48 -13 10 -22 27 -23 43 0 17 -8 31 -20 38 -21 10
-23 50 -4 70 17 17 9 25 -17 19 -27 -7 -56 19 -47 42 2 7 0 15 -6 19 -6 3 -11
15 -11 26 0 10 -11 29 -25 41 -14 12 -25 32 -25 46 0 16 -7 26 -21 29 -12 3
-18 11 -15 19 3 8 2 14 -3 14 -11 0 -31 46 -31 72 0 25 -40 108 -52 108 -5 0
-7 4 -4 8 3 5 1 24 -4 43 -7 24 -20 39 -42 49 -33 15 -80 85 -73 107 2 7 -2
10 -9 7 -8 -3 -17 0 -22 7 -5 8 -3 10 6 4 9 -5 11 -4 6 3 -4 7 -14 12 -22 12
-14 0 -63 27 -74 41 -11 13 -47 27 -90 34 -25 4 -54 14 -65 21 -25 18 -52 17
-95 -2z m35 -24 c-22 -11 -48 -20 -60 -19 -12 0 -3 7 25 19 60 25 84 25 35 0z
m-95 -26 c0 -3 -7 -12 -15 -20 -16 -17 -18 -14 -9 10 6 15 24 23 24 10z m240
-104 c0 -5 -5 -10 -11 -10 -5 0 -7 5 -4 10 3 6 8 10 11 10 2 0 4 -4 4 -10z
m-806 -626 c9 -3 16 -12 16 -20 0 -8 5 -14 10 -14 6 0 10 -11 10 -24 0 -19 6
-26 28 -29 42 -8 77 -3 96 12 16 13 20 11 41 -15 19 -23 21 -30 9 -37 -7 -4
-23 -3 -35 4 -14 7 -24 8 -28 1 -8 -14 -32 -17 -59 -8 -23 8 -92 -26 -92 -45
0 -5 -4 -9 -9 -9 -14 0 -78 -65 -85 -87 -12 -39 20 -39 101 -1 22 11 43 4 43
-13 0 -6 -4 -8 -9 -5 -4 3 -6 -5 -4 -18 4 -19 -2 -27 -36 -42 -22 -11 -41 -25
-41 -32 0 -7 -6 -15 -14 -18 -8 -3 -19 -19 -25 -35 -5 -16 -15 -29 -21 -29 -6
0 -8 -5 -4 -11 3 -6 0 -15 -7 -20 -12 -7 -12 -10 -1 -18 8 -4 13 -11 12 -15
-1 -4 1 -12 4 -19 5 -9 7 -9 12 1 3 6 15 12 27 12 19 -1 20 -2 7 -13 -9 -7
-23 -27 -32 -46 -16 -33 -15 -35 5 -51 12 -10 33 -21 47 -25 l25 -9 -25 -7
c-23 -6 -23 -7 -3 -8 14 -1 24 -11 32 -31 10 -29 18 -34 53 -31 9 1 19 -3 23
-9 3 -5 18 -11 33 -11 23 -1 23 -2 5 -6 -27 -5 -56 -48 -55 -82 0 -14 -5 -31
-10 -38 -5 -7 -7 -17 -3 -23 3 -5 -1 -10 -9 -10 -9 0 -16 -6 -16 -13 0 -31
-26 -66 -55 -73 -29 -7 -29 -7 -5 -11 49 -9 69 -43 25 -43 -14 0 -25 5 -25 12
0 6 -3 9 -6 6 -3 -4 -1 -16 5 -27 9 -16 9 -19 -2 -15 -7 2 -22 -4 -32 -16 -10
-11 -15 -20 -11 -20 4 0 -4 -14 -18 -31 -14 -17 -25 -40 -25 -52 l2 -22 4 22
c5 24 29 38 39 21 4 -6 0 -16 -9 -23 -21 -15 -22 -35 -2 -35 22 0 18 -18 -5
-25 -27 -9 -25 -25 2 -25 25 0 14 -14 -18 -24 -29 -9 -41 21 -17 39 22 17 12
29 -17 20 -15 -5 -19 -12 -15 -25 4 -12 -2 -27 -14 -39 -16 -16 -17 -20 -4
-25 24 -10 63 -7 63 5 0 5 5 7 10 4 17 -10 -9 -35 -35 -35 -13 0 -31 -3 -39
-6 -15 -6 -15 -8 1 -20 17 -13 17 -13 0 -14 -10 0 -20 -7 -23 -15 -8 -20 -44
-19 -44 1 0 12 -6 15 -21 11 -12 -3 -28 0 -36 9 -8 8 -11 14 -6 14 4 0 0 5 -9
11 -19 10 -21 55 -5 77 7 8 5 12 -6 12 -11 0 -13 6 -10 21 4 14 0 25 -9 30
-10 5 -14 18 -10 34 2 14 -2 33 -9 42 -10 12 -10 14 -1 9 6 -4 12 -3 12 3 0 5
-6 12 -12 14 -10 4 -10 7 0 15 19 13 12 219 -8 232 -11 7 -11 10 -2 10 10 0
10 5 1 22 -9 16 -9 34 0 72 6 28 13 69 15 91 4 46 31 145 52 192 8 17 14 35
14 41 0 5 7 13 16 16 8 3 12 10 9 16 -10 16 62 110 85 110 5 0 12 11 16 25 3
14 10 25 15 25 5 0 14 12 20 28 7 17 13 22 16 13 4 -10 7 -10 13 -1 10 17 0
51 -13 43 -6 -4 -8 0 -4 10 3 10 2 17 -3 17 -16 0 -11 19 9 37 11 9 17 22 14
29 -3 8 0 14 6 14 7 0 9 10 7 25 -3 14 -1 23 4 20 13 -8 60 24 60 41 0 15 10
17 34 8z m76 -409 c0 -10 -70 -45 -90 -45 -25 0 7 42 39 52 24 7 51 4 51 -7z
m870 -53 c0 -11 39 -52 49 -52 5 0 12 12 16 27 5 21 8 24 16 12 5 -7 9 -25 10
-39 1 -17 3 -19 6 -7 2 9 9 17 14 17 6 0 9 -32 8 -79 -1 -43 1 -83 4 -88 11
-17 -1 -243 -17 -335 -14 -79 -43 -182 -66 -233 -4 -11 -11 -36 -14 -55 -10
-56 -86 -216 -98 -205 -2 3 -4 -5 -4 -18 1 -13 -4 -21 -12 -19 -8 1 -16 -7
-19 -18 -3 -11 -9 -20 -14 -20 -5 0 -19 -10 -31 -22 -14 -14 -23 -18 -26 -10
-2 7 -13 12 -25 13 -16 0 -18 2 -7 7 10 5 16 25 18 62 2 30 8 59 13 65 5 5 9
17 9 27 0 10 7 18 16 18 8 0 12 -4 9 -10 -3 -5 -1 -10 4 -10 15 0 14 6 -5 35
-15 24 -12 45 7 45 5 0 9 -12 9 -27 0 -18 3 -24 10 -17 10 10 12 28 7 110 -1
28 -6 40 -14 37 -7 -3 -13 2 -13 11 0 10 8 15 23 13 14 -1 21 3 19 12 -2 8 3
18 10 22 10 7 9 9 -4 9 -21 0 -22 8 -8 44 9 25 8 26 -23 27 l-32 1 33 9 c17 5
32 12 32 15 0 3 -9 2 -20 -1 -18 -6 -20 -2 -20 33 0 32 -4 41 -21 45 -16 4
-19 11 -14 26 4 12 2 21 -4 21 -6 0 -11 5 -11 10 0 6 9 10 21 10 15 0 19 5 14
19 -3 12 0 21 10 25 22 8 18 25 -7 37 -19 8 -16 9 15 5 21 -3 50 -1 64 5 19 7
28 6 33 -2 6 -8 9 -8 15 0 10 17 -3 44 -16 35 -8 -4 -9 -3 -5 4 4 7 14 12 22
12 8 0 14 7 14 16 0 14 -3 14 -15 4 -8 -7 -15 -8 -15 -2 0 5 7 15 15 22 8 7
13 16 10 20 -3 4 2 11 11 14 18 7 16 64 -6 146 -6 25 -12 55 -12 68 0 12 -5
22 -10 22 -6 0 -8 6 -5 14 3 8 1 17 -6 20 -7 2 -2 5 11 5 12 1 22 -3 22 -7z
m-904 -51 c0 -15 -3 -17 -13 -9 -7 6 -10 14 -7 19 9 15 20 10 20 -10z m842
-61 c7 -11 9 -20 4 -20 -10 0 -32 22 -32 32 0 15 15 8 28 -12z m-398 -6 c0 -8
-5 -12 -10 -9 -6 4 -8 11 -5 16 9 14 15 11 15 -7z m337 -66 c-3 -7 -5 -2 -5
12 0 14 2 19 5 13 2 -7 2 -19 0 -25z m28 12 c3 -5 1 -10 -4 -10 -6 0 -11 5
-11 10 0 6 2 10 4 10 3 0 8 -4 11 -10z m-431 -35 c-19 -14 -19 -14 1 -16 11
-1 23 -1 28 0 4 0 7 -4 7 -9 0 -7 7 -7 20 0 11 6 18 15 15 21 -16 25 14 4 46
-33 46 -50 68 -90 54 -95 -37 -13 -39 -21 -12 -57 34 -44 50 -83 37 -91 -6 -4
-10 -15 -10 -26 0 -10 -3 -19 -6 -19 -9 0 -44 41 -44 51 0 4 -6 9 -12 12 -7 2
-3 2 10 0 34 -5 28 26 -8 38 -16 6 -30 15 -30 21 0 5 -9 21 -20 35 -25 31 -25
40 -2 46 9 3 -1 4 -23 3 -38 -1 -40 -3 -41 -36 0 -19 4 -41 10 -49 9 -11 7
-13 -13 -6 -15 5 -26 3 -31 -6 -7 -10 -14 -9 -34 4 -31 21 -36 21 -36 3 0 -8
8 -17 18 -19 9 -3 3 -5 -15 -6 -18 0 -36 -7 -40 -14 -12 -21 -59 -29 -72 -13
-9 10 -9 21 0 42 26 66 28 94 8 105 -11 5 -25 7 -31 3 -7 -4 -8 -3 -4 4 4 7
15 12 25 12 10 0 26 11 35 25 9 14 21 25 27 25 6 0 24 9 40 21 31 22 71 37
103 38 20 1 20 1 0 -14z m41 5 c3 -5 1 -10 -4 -10 -6 0 -11 5 -11 10 0 6 2 10
4 10 3 0 8 -4 11 -10z m425 -24 c0 -15 -18 -31 -26 -23 -7 7 7 37 17 37 5 0 9
-6 9 -14z m-770 -66 c0 -5 -2 -10 -4 -10 -3 0 -8 5 -11 10 -3 6 -1 10 4 10 6
0 11 -4 11 -10z m320 -160 c0 -11 -4 -20 -10 -20 -5 0 -10 2 -10 4 0 2 -3 11
-6 20 -4 11 -1 16 10 16 9 0 16 -8 16 -20z m30 -11 c0 -16 4 -20 18 -14 12 4
14 3 6 -5 -6 -6 -17 -8 -25 -5 -16 6 -23 45 -8 45 5 0 9 -9 9 -21z m-282 -91
c7 -7 12 -22 12 -35 0 -20 -5 -23 -34 -23 -19 0 -38 5 -41 10 -3 6 3 10 14 10
16 0 21 6 21 25 0 27 9 32 28 13z m-48 -8 c0 -5 -4 -10 -10 -10 -5 0 -10 5
-10 10 0 6 5 10 10 10 6 0 10 -4 10 -10z m660 -20 c0 -5 -4 -10 -10 -10 -5 0
-10 5 -10 10 0 6 5 10 10 10 6 0 10 -4 10 -10z m-786 -66 c9 -24 7 -28 -9 -14
-12 10 -15 10 -15 -4 0 -9 -5 -16 -11 -16 -6 0 -9 -9 -6 -20 3 -11 1 -18 -4
-14 -14 8 -11 33 9 59 20 29 28 31 36 9z m-47 -116 c-3 -8 -6 -5 -6 6 -1 11 2
17 5 13 3 -3 4 -12 1 -19z m-17 -2 c0 -3 -4 -8 -10 -11 -5 -3 -10 -1 -10 4 0
6 5 11 10 11 6 0 10 -2 10 -4z m183 -276 c7 -1 0 -8 -16 -16 -38 -21 -53 -8
-25 21 18 19 24 21 26 10 2 -8 9 -15 15 -15z m327 9 c0 -5 -4 -9 -10 -9 -5 0
-10 7 -10 16 0 8 5 12 10 9 6 -3 10 -10 10 -16z m-420 -50 c0 -7 10 -9 24 -5
14 3 37 1 52 -5 23 -8 25 -12 14 -19 -11 -7 -12 -10 -2 -10 7 0 11 -4 8 -8 -4
-7 -23 -7 -71 -3 -5 1 -3 6 5 11 12 7 8 10 -15 10 -24 0 -31 4 -31 20 0 11 4
20 8 20 4 0 8 -5 8 -11z m-358 -56 c-6 -59 -9 -62 -13 -10 -3 29 0 47 6 47 7
0 9 -15 7 -37z m835 5 c-3 -8 -6 -5 -6 6 -1 11 2 17 5 13 3 -3 4 -12 1 -19z
m58 -18 c-3 -5 -15 -10 -26 -10 -11 0 -17 5 -14 10 3 6 15 10 26 10 11 0 17
-4 14 -10z m-892 -80 c3 -11 1 -20 -4 -20 -5 0 -9 9 -9 20 0 11 2 20 4 20 2 0
6 -9 9 -20z m36 -104 c9 -11 9 -16 0 -22 -8 -4 -9 -3 -5 4 4 7 2 12 -3 12 -6
0 -11 5 -11 10 0 14 5 13 19 -4z m1044 -61 c-1 -49 -8 -83 -19 -100 -16 -25
-44 -34 -44 -15 0 6 6 9 13 8 7 -2 11 7 10 24 -1 20 2 25 13 21 18 -7 18 2 0
20 -13 12 -13 20 0 58 15 42 23 59 27 59 2 0 2 -34 0 -75z m-2998 -45 c-3 -5
-15 -10 -26 -10 -10 0 -19 5 -19 10 0 6 12 10 26 10 14 0 23 -4 19 -10z m-268
-1046 c-3 -3 -12 -4 -19 -1 -8 3 -5 6 6 6 11 1 17 -2 13 -5z m1953 -84 c12
-16 17 -30 12 -30 -6 0 -12 7 -16 15 -3 8 -17 15 -32 15 -22 0 -25 2 -14 15
18 21 26 19 50 -15z m-1969 -73 c-13 -13 -26 -3 -16 12 3 6 11 8 17 5 6 -4 6
-10 -1 -17z m1234 -194 c18 -14 18 -15 2 -9 -10 3 -23 6 -28 6 -5 0 -9 5 -9
10 0 14 12 12 35 -7z m1752 -279 c-3 -3 -12 -4 -19 -1 -8 3 -5 6 6 6 11 1 17
-2 13 -5z m-3062 -394 c-12 -19 -22 -10 -17 16 4 22 6 24 14 10 5 -9 6 -21 3
-26z m3778 -10 c-3 -69 -53 -60 -53 10 0 37 1 38 28 31 23 -7 27 -13 25 -41z
m-4023 -24 c0 -3 -4 -8 -10 -11 -5 -3 -10 -1 -10 4 0 6 5 11 10 11 6 0 10 -2
10 -4z m237 -12 c-3 -3 -12 -4 -19 -1 -8 3 -5 6 6 6 11 1 17 -2 13 -5z m-7
-64 c13 -8 13 -10 -2 -10 -9 0 -20 5 -23 10 -8 13 5 13 25 0z m1820 -20 c12
-8 12 -10 1 -10 -20 0 -51 -39 -44 -57 3 -8 15 -19 27 -23 20 -8 19 -9 -5 -9
-40 -1 -54 56 -22 91 18 21 22 21 43 8z m1280 -560 c0 -5 11 -10 24 -10 20 0
24 -4 21 -27 -1 -15 -13 -35 -25 -45 -36 -29 -57 -22 -78 25 -16 37 -15 47 3
47 8 0 15 5 15 10 0 6 9 10 20 10 11 0 20 -4 20 -10z m-1506 -773 c12 -5 26
-1 37 9 11 10 19 12 19 6 0 -31 -73 -37 -92 -8 -13 19 -8 32 5 15 7 -8 21 -18
31 -22z m1540 -493 c9 -33 0 -42 -20 -23 -8 9 -12 23 -8 32 9 25 21 21 28 -9z
m-3034 -988 c0 -9 -7 -12 -20 -9 -11 3 -20 9 -20 14 0 5 9 9 20 9 11 0 20 -6
20 -14z m3945 -5 c-3 -6 -11 -8 -17 -5 -6 4 -5 9 3 15 16 10 23 4 14 -10z m-5
-47 c0 -8 -6 -14 -14 -14 -8 0 -16 -6 -18 -12 -3 -7 -5 1 -5 18 0 25 4 30 19
26 10 -2 18 -11 18 -18z"/>
<path d="M3898 5983 c6 -2 18 -2 25 0 6 3 1 5 -13 5 -14 0 -19 -2 -12 -5z"/>
<path d="M4481 6291 c-11 -7 -9 -11 8 -20 12 -7 19 -16 16 -22 -4 -5 0 -9 9
-9 11 0 12 7 7 27 -8 30 -19 37 -40 24z"/>
<path d="M4245 6090 c-3 -5 -1 -10 4 -10 6 0 11 5 11 10 0 6 -2 10 -4 10 -3 0
-8 -4 -11 -10z"/>
<path d="M3460 6010 c0 -5 5 -10 10 -10 6 0 10 5 10 10 0 6 -4 10 -10 10 -5 0
-10 -4 -10 -10z"/>
<path d="M1340 5471 c0 -10 -10 -31 -22 -47 -17 -21 -19 -26 -6 -21 9 3 18 2
20 -2 2 -4 15 -11 29 -14 l26 -7 -8 46 c-5 25 -11 50 -14 55 -10 16 -25 10
-25 -10z"/>
<path d="M1214 5328 c-3 -10 -10 -16 -15 -13 -18 12 -29 -6 -17 -28 6 -12 15
-38 18 -57 l7 -35 12 43 c6 23 17 42 22 42 7 0 8 -7 4 -17 -4 -10 -9 -27 -10
-38 -1 -14 -1 -14 2 -2 5 20 14 22 31 5 15 -15 16 -48 1 -48 -18 0 -37 -31
-31 -52 2 -10 11 -18 20 -18 21 0 7 -13 -31 -27 l-32 -11 35 -2 35 -1 -28 -15
c-16 -9 -37 -12 -50 -9 -21 7 -21 6 2 -11 17 -12 29 -14 40 -8 17 10 61 7 61
-4 0 -11 -52 -30 -99 -35 -42 -5 -65 -22 -54 -40 3 -4 11 -6 19 -3 8 3 14 1
14 -4 0 -6 7 -10 15 -10 8 0 15 -4 15 -10 0 -5 -7 -10 -17 -10 -9 0 -14 -3
-10 -6 11 -11 77 6 77 21 0 7 -6 15 -12 18 -7 2 -5 3 5 2 9 -2 17 1 17 6 0 5
7 9 15 9 8 0 14 6 12 13 -1 7 11 13 31 15 17 2 32 8 32 13 0 6 13 14 28 20 24
8 28 14 24 38 -4 27 -2 28 27 25 30 -3 31 -2 31 32 0 29 -3 35 -16 30 -11 -4
-34 11 -69 45 -29 28 -67 61 -84 72 -17 12 -31 28 -31 35 0 7 -4 10 -10 7 -5
-3 -10 -1 -10 4 0 6 5 11 10 11 6 0 10 6 10 14 0 21 -39 15 -46 -6z m113 -254
c-3 -3 -12 -4 -19 -1 -8 3 -5 6 6 6 11 1 17 -2 13 -5z"/>
<path d="M1065 5290 c-3 -5 -3 -10 2 -10 4 0 -12 -10 -35 -23 l-44 -22 31 -12
c37 -15 50 -38 47 -81 -3 -40 5 -40 83 -1 60 30 61 32 42 46 -12 8 -21 23 -21
34 0 10 -4 19 -10 19 -5 0 -10 8 -10 18 0 10 -5 23 -12 30 -15 15 -64 16 -73
2z"/>
<path d="M1331 4564 c0 -11 3 -14 6 -6 3 7 2 16 -1 19 -3 4 -6 -2 -5 -13z"/>
<path d="M1505 4150 c3 -5 8 -10 11 -10 2 0 4 5 4 10 0 6 -5 10 -11 10 -5 0
-7 -4 -4 -10z"/>
<path d="M1147 3303 c-12 -11 -8 -31 8 -37 11 -4 15 1 15 19 0 24 -10 32 -23
18z"/>
<path d="M1080 3286 c0 -8 5 -18 10 -21 6 -3 10 3 10 14 0 12 -4 21 -10 21 -5
0 -10 -6 -10 -14z"/>
<path d="M1150 3213 c0 -5 5 -15 10 -23 8 -12 10 -11 10 8 0 12 -4 22 -10 22
-5 0 -10 -3 -10 -7z"/>
<path d="M6142 3153 c16 -32 33 -59 38 -61 5 -2 -5 24 -21 57 -17 34 -34 61
-38 61 -4 0 5 -26 21 -57z"/>
<path d="M1250 3170 c-25 -16 1 -30 40 -21 l35 8 -28 12 c-33 13 -29 13 -47 1z"/>
<path d="M1208 3123 c6 -2 18 -2 25 0 6 3 1 5 -13 5 -14 0 -19 -2 -12 -5z"/>
<path d="M1200 3080 c0 -5 5 -10 10 -10 6 0 10 5 10 10 0 6 -4 10 -10 10 -5 0
-10 -4 -10 -10z"/>
<path d="M6182 3063 c-18 -32 -15 -51 4 -25 8 12 14 28 11 35 -2 7 -8 3 -15
-10z"/>
<path d="M1130 3054 c0 -8 5 -12 10 -9 6 4 8 11 5 16 -9 14 -15 11 -15 -7z"/>
<path d="M6145 2979 c-5 -14 -1 -27 11 -38 17 -15 17 -15 5 1 -7 9 -10 26 -6
38 3 11 4 20 1 20 -2 0 -8 -10 -11 -21z"/>
<path d="M6170 2911 c0 -12 49 -63 58 -59 5 1 -6 17 -24 34 -19 17 -34 28 -34
25z"/>
</g>
</svg>
